<?xml version="1.0" encoding="UTF-8"?><svg xmlns="http://www.w3.org/2000/svg" viewBox="0 0 18.75 18.29"><defs><style>.d{fill:#fff;fill-rule:evenodd;}</style></defs><g id="a"/><g id="b"><g id="c"><path class="d" d="M9.38,0C4.2,0,0,4.2,0,9.38c0,4.14,2.69,7.66,6.41,8.9,.47,.09,.64-.2,.64-.45,0-.22,0-.81-.01-1.59-2.61,.57-3.16-1.26-3.16-1.26-.43-1.08-1.04-1.37-1.04-1.37-.85-.58,.06-.57,.06-.57,.94,.07,1.44,.97,1.44,.97,.84,1.43,2.19,1.02,2.73,.78,.09-.61,.33-1.02,.6-1.25-2.08-.24-4.27-1.04-4.27-4.63,0-1.02,.37-1.86,.97-2.52-.1-.24-.42-1.19,.09-2.48,0,0,.79-.25,2.58,.96,.75-.21,1.55-.31,2.35-.32,.8,0,1.6,.11,2.35,.32,1.79-1.21,2.58-.96,2.58-.96,.51,1.29,.19,2.24,.09,2.48,.6,.66,.96,1.49,.96,2.52,0,3.6-2.19,4.4-4.28,4.63,.34,.29,.64,.86,.64,1.74,0,1.25-.01,2.27-.01,2.57,0,.25,.17,.54,.64,.45,3.72-1.24,6.41-4.75,6.41-8.9C18.75,4.2,14.56,0,9.38,0Z"/></g></g></svg>