<?xml version="1.0" encoding="utf-8"?>
<!-- Generator: Adobe Illustrator 26.2.1, SVG Export Plug-In . SVG Version: 6.00 Build 0)  -->
<svg version="1.1" id="Layer_1" xmlns="http://www.w3.org/2000/svg" xmlns:xlink="http://www.w3.org/1999/xlink" x="0px" y="0px"
	 viewBox="0 0 195.6 76.4" style="enable-background:new 0 0 195.6 76.4;" xml:space="preserve">
<style type="text/css">
	.st0{fill:#56AE5F;}
</style>
<path class="st0" d="M34.7,16.3L34.7,16.3L34.7,16.3L34.7,16.3z M187,48.1c0-0.1-0.1-0.3-0.1-0.4l-1.8,0.2c-0.1-0.1-0.1-0.2-0.1-0.4
	c0-0.4,0.1-0.6,0.5-0.6c1-0.1,2-0.2,3-0.3c1-0.1,1.9-0.6,2.5-1.5c1.2-1.9,2.4-3.7,3.7-5.6c0.3-0.5,0.5-1,0.4-1.6
	c0.1-0.5-0.1-1-0.4-1.6c-1.2-1.9-2.5-3.7-3.7-5.6c-0.6-0.9-1.4-1.4-2.5-1.5c-1-0.1-2-0.2-3-0.3c-0.4,0-0.5-0.2-0.5-0.6
	c0-0.2,0-0.3,0.1-0.4l1.8,0.2c0-0.1,0.1-0.3,0.1-0.4c0.2-1.2-0.7-2.3-2-2.5c-1.3-0.2-2.4,0.7-2.6,1.9c0,0.1,0,0.3,0,0.4l1.6,0.2
	c0.1,0.1,0.1,0.2,0.1,0.4c0,0.6-0.3,0.6-0.7,0.5c-1.5-0.2-3-0.3-4.5-0.5c-0.3,0-0.6-0.1-0.5-0.5c0-0.1,0-0.2,0.1-0.3l1.7,0.2
	c0-0.1,0.1-0.3,0.1-0.4c0.2-1.2-0.7-2.3-2-2.5c-1.3-0.2-2.4,0.6-2.6,1.8c0,0.1,0,0.3,0,0.4l1.8,0.2c0,0.2,0,0.4,0,0.6
	c-0.1,0.3-0.3,0.2-0.5,0.2c-1.6-0.2-3.3-0.4-4.9-0.5c-0.4,0-0.5-0.2-0.4-0.5c0-0.2,0-0.3,0.1-0.4l1.7,0.2c0-0.1,0.1-0.2,0.1-0.4
	c0.1-0.6-0.1-1.1-0.6-1.6c0,0,0,0,0,0c0,0,0,0,0,0c-0.1-0.1-0.1-0.1-0.2-0.2c-0.6-0.4-1.2-0.6-1.9-0.5c-1,0.1-1.8,0.8-1.9,1.6
	c0,0.1,0,0.3,0,0.4l1.7,0.2c0.1,0.1,0.1,0.2,0.1,0.4c-0.1,0.5-0.3,0.5-0.7,0.5c-0.8-0.1-1.6-0.2-2.5-0.3c-1-0.1-1.8,0.2-2.3,1
	c-0.8,1.2-1.6,2.3-2.3,3.5c-0.3,0.4-55.7,0.1-60.1,0.1c-0.3,0-0.5,0-0.6-0.1c-0.1-0.1-0.2-0.2-0.2-0.5c-0.3-1.5-0.6-3-0.9-4.5
	c0-0.1,0-0.2-0.1-0.2c-0.7-2.1-1.4-4.1-2.4-6.1c-1.2-2.4-2.7-4.6-4.6-6.5c-0.1-0.1-0.2-0.2-0.3-0.3c-3.8-3.4-8.3-4.7-13.3-4.2
	c-0.3,0-0.6,0-0.9,0c-0.1,0-0.2,0.1-0.3,0l0,0c-3.4,0.5-6.5,1.8-9.6,3.2c-0.2,0.1-0.4,0.2-0.7,0.3c-3.5,1.8-7,2-10.6,0.1
	c-2.2-1.1-4.4-2.2-6.5-3.5c-0.5-0.2-1-0.5-1.5-0.8c-0.2-0.1-0.3-0.1-0.5-0.2c-2.2-1.1-4.3-2.3-6.5-3.4c-0.3,0-0.5-0.2-0.7-0.4
	c-0.4-0.1-0.8-0.2-1.2-0.4c-1.7-0.7-3.5-1.4-5.3-2c-4.3-1.5-8.8-2-13.4-1.5c-0.2,0-0.4,0.1-0.7,0.1c-0.2,0-0.3,0.1-0.5,0.1l0,0
	c-3.2,0.6-6.1,1.7-8.8,3.5c-3.6,2.5-6.1,5.8-8,9.7C2,19.9,0.7,26.4,0.4,33.1c-0.1,1.6-0.1,3.2-0.1,4.9c0,1.6,0.1,3.2,0.1,4.9
	C0.7,49.5,2,56,4.9,62.1c1.9,3.9,4.4,7.2,8,9.7c2.7,1.8,5.7,2.9,8.8,3.5l0,0c0.2,0,0.3,0.1,0.5,0.1c0.2,0,0.4,0.1,0.7,0.1
	c4.6,0.4,9-0.1,13.4-1.5c1.8-0.6,3.5-1.3,5.3-2c0.4-0.2,0.8-0.3,1.2-0.4c0.2-0.2,0.4-0.5,0.7-0.4c2.2-1.1,4.3-2.3,6.5-3.4
	c0.2-0.1,0.3-0.1,0.5-0.2c0.4-0.3,0.9-0.7,1.5-0.8c2.1-1.3,4.3-2.4,6.5-3.5c3.6-1.9,7.1-1.6,10.6,0.1c0.2,0.1,0.4,0.2,0.7,0.3
	c3.1,1.5,6.2,2.7,9.6,3.2l0,0c0.1-0.1,0.2,0,0.3,0c0.3,0,0.6,0,0.9,0c5,0.4,9.5-0.8,13.3-4.2c0.1-0.1,0.2-0.2,0.3-0.3
	c1.9-1.9,3.4-4.1,4.6-6.5c1-2,1.6-4.1,2.4-6.1c0-0.1,0-0.2,0.1-0.2c0.3-1.5,0.7-3,0.9-4.5c0-0.2,0.1-0.4,0.2-0.5
	c0.1-0.1,0.3-0.1,0.6-0.1c4.4,0,59.8-0.3,60.1,0.1c0.8,1.2,1.5,2.4,2.3,3.5c0.6,0.8,1.3,1.1,2.3,1c0.8-0.1,1.6-0.2,2.5-0.3
	c0.4-0.1,0.6,0,0.7,0.5c0,0.2,0,0.3-0.1,0.4l-1.7,0.2c0,0.1,0,0.3,0,0.4c0.1,0.9,0.9,1.5,1.9,1.6c0.7,0.1,1.3-0.1,1.9-0.5
	c0.1-0.1,0.1-0.1,0.2-0.2c0,0,0,0,0,0c0,0,0,0,0,0c0.4-0.4,0.6-1,0.6-1.6c0-0.1-0.1-0.3-0.1-0.4l-1.7,0.2c-0.1-0.1-0.1-0.3-0.1-0.4
	c-0.1-0.4,0.1-0.5,0.4-0.5c1.6-0.2,3.3-0.4,4.9-0.5c0.2,0,0.5-0.1,0.5,0.2c0.1,0.2,0.1,0.4,0,0.6l-1.8,0.2c0,0.1,0,0.3,0,0.4
	c0.2,1.2,1.3,2,2.6,1.8c1.3-0.2,2.1-1.3,2-2.5c0-0.1-0.1-0.3-0.1-0.4l-1.7,0.2c0-0.1-0.1-0.2-0.1-0.3c-0.1-0.5,0.2-0.5,0.5-0.5
	c1.5-0.2,3-0.3,4.5-0.5c0.4-0.1,0.7-0.1,0.7,0.5c0,0.2,0,0.3-0.1,0.4l-1.6,0.2c0,0.1,0,0.3,0,0.4c0.2,1.2,1.3,2,2.6,1.9
	C186.3,50.4,187.2,49.3,187,48.1L187,48.1z M32.3,53.1c-0.7,0-1.3,0-2,0c-1.2,0-1.7-0.5-1.7-1.7c0-1.8,0-3.5,0-5.3
	c0-2.7,0-5.5,0-8.2c0-2.7,0-5.5,0-8.2c0-1.8,0-3.5,0-5.3c0-1.2,0.5-1.7,1.7-1.7c0.7,0,1.3,0,2,0c1.4,0,1.8,0.4,1.8,1.9
	c0,4.2,0,8.4,0,12.6c0,0.2,0,0.5,0,0.7c0,0.2,0,0.5,0,0.7c0,4.2,0,8.4,0,12.6C34.2,52.7,33.8,53.1,32.3,53.1L32.3,53.1z M60.7,47
	c-2.5-2.5-3.7-5.7-3.8-9c0-3.3,1.3-6.5,3.8-9c5-5.1,13.2-5.1,18.3-0.1c2.5,2.5,3.8,5.8,3.8,9c0,3.3-1.3,6.5-3.8,9
	C74,52.1,65.8,52,60.7,47L60.7,47z M169,35.7c-0.4,0-0.9,0.1-1.1-0.3c-0.3-0.4,0.1-0.8,0.3-1.1c0.2-0.3,0.4-0.6,0.6-0.9
	c0.7-1.4,1.9-1.7,3.4-1.6c4.1,0.4,8.3,0.7,12.4,1c0.8,0.1,1.5,0.2,2.2,1c0,0,0.2,0.2,0.3,0.4c0.5,1,0.3,1.5-0.9,1.5
	c-3.4,0-6.9,0-10.3,0C173.6,35.7,171.3,35.7,169,35.7L169,35.7z M184.6,43.2c-4.1,0.3-8.3,0.6-12.4,1c-1.5,0.1-2.6-0.2-3.4-1.6
	c-0.2-0.3-0.4-0.6-0.6-0.9c-0.2-0.3-0.6-0.7-0.3-1.1c0.3-0.4,0.7-0.3,1.1-0.3c2.3,0,4.6,0,6.9,0c3.4,0,6.9,0,10.3,0
	c1.1,0,1.4,0.5,0.9,1.5c-0.1,0.2-0.3,0.4-0.3,0.4C186.1,42.9,185.4,43.1,184.6,43.2L184.6,43.2z"/>
</svg>
